<svg xmlns="http://www.w3.org/2000/svg" width="1280" height="344" viewBox="0 0 1280 344" fill="none" role="img" aria-labelledby="title desc">
<title id="title">Yuvaraj Vodiboina — Frontend Engineer &amp; Independent Product Builder</title>
<desc id="desc">Bengaluru, India. Web, browser extensions, and Android. A geometric browser and phone illustration sits beside the name.</desc>
<defs><pattern id="grid" width="28" height="28" patternUnits="userSpaceOnUse"><circle cx="1" cy="1" r="1" fill="#d1dae5"/></pattern></defs>
<rect width="1280" height="344" rx="16" fill="#f6f8fa"/>
<rect x="858" y="0" width="422" height="344" fill="url(#grid)"/>
<path d="M48 44H82" stroke="#087e79" stroke-width="4"/>
<text x="98" y="50" fill="#4d6178" font-family="Arial,Helvetica,sans-serif" font-size="15" font-weight="600" letter-spacing="3">DESIGN. BUILD. SHIP.</text>
<text x="48" y="142" fill="#101c2b" font-family="Arial,Helvetica,sans-serif" font-size="68" font-weight="700" letter-spacing="-2.8">Yuvaraj Vodiboina</text>
<text x="50" y="189" fill="#087e79" font-family="Arial,Helvetica,sans-serif" font-size="25" font-weight="500">Frontend Engineer &amp; Independent Product Builder</text>
<text x="50" y="259" fill="#4d6178" font-family="Arial,Helvetica,sans-serif" font-size="18">WEB</text>
<circle cx="112" cy="253" r="2.5" fill="#087e79"/>
<text x="128" y="259" fill="#4d6178" font-family="Arial,Helvetica,sans-serif" font-size="18">BROWSER EXTENSIONS</text>
<circle cx="355" cy="253" r="2.5" fill="#087e79"/>
<text x="372" y="259" fill="#4d6178" font-family="Arial,Helvetica,sans-serif" font-size="18">ANDROID</text>
<text x="50" y="302" fill="#4d6178" font-family="Arial,Helvetica,sans-serif" font-size="14" letter-spacing="1.5">BENGALURU, INDIA</text>
<circle cx="1080" cy="170" r="116" stroke="#d1dae5" stroke-width="1"/>
<circle cx="1080" cy="170" r="143" stroke="#d1dae5" stroke-width="1" stroke-dasharray="3 10"/>
<rect x="922" y="96" width="245" height="159" rx="15" fill="#e7eef5" stroke="#5968c0" stroke-width="2"/>
<path d="M922 132H1167" stroke="#d1dae5" stroke-width="2"/>
<circle cx="941" cy="114" r="3" fill="#087e79"/><circle cx="954" cy="114" r="3" fill="#5968c0"/><circle cx="967" cy="114" r="3" fill="#4d6178"/>
<path d="M969 169L950 189L969 209M1014 169L1033 189L1014 209M997 160L985 218" stroke="#087e79" stroke-width="5" stroke-linecap="round" stroke-linejoin="round"/>
<path d="M1053 175H1120M1053 191H1095M1053 207H1110" stroke="#d1dae5" stroke-width="6" stroke-linecap="round"/>
<rect x="1112" y="156" width="89" height="143" rx="17" fill="#f6f8fa" stroke="#087e79" stroke-width="2"/>
<rect x="1124" y="180" width="65" height="93" rx="5" fill="#e7eef5"/>
<path d="M1146 167H1166" stroke="#4d6178" stroke-width="3" stroke-linecap="round"/>
<path d="M1137 211L1150 224L1176 198" stroke="#087e79" stroke-width="4" stroke-linecap="round" stroke-linejoin="round"/>
<path d="M1138 241H1175M1138 254H1161" stroke="#d1dae5" stroke-width="4" stroke-linecap="round"/>
<circle cx="1157" cy="285" r="3" fill="#4d6178"/>
<circle cx="1183" cy="79" r="7" fill="#087e79"/><circle cx="943" cy="288" r="4" fill="#5968c0"/>
</svg>