<svg xmlns="http://www.w3.org/2000/svg" width="1280" height="420" viewBox="0 0 1280 420" role="img" aria-labelledby="title"><title id="title">Yuvaraj Vodiboina. Frontend engineer and independent product developer. Web, browser, and Android.</title><rect width="1280" height="420" rx="18" fill="#0d1117"/><defs><pattern id="dots" width="22" height="22" patternUnits="userSpaceOnUse"><circle cx="1" cy="1" r="1" fill="#2f3a49"/></pattern></defs><rect x="748" y="30" width="492" height="310" fill="url(#dots)"/><g transform="translate(44 31) scale(1.2083333333333333)" fill="none" stroke="#efa58f" stroke-width="1.6" stroke-linecap="round" stroke-linejoin="round"><path d="M2 18h20M5 14a7 7 0 0 1 14 0M12 1v4M2 6l3 3M22 6l-3 3"/></g><text x="89" y="54" fill="#a2aebc" font-family="Arial,Helvetica,sans-serif" font-size="14" font-weight="600" letter-spacing="2">YUVARAJ / CODEHORIZON</text><text x="46" y="139" fill="#f0f3f7" font-family="Arial,Helvetica,sans-serif" font-size="74" font-weight="700" letter-spacing="-2">Yuvaraj</text><text x="46" y="214" fill="#f0f3f7" font-family="Arial,Helvetica,sans-serif" font-size="74" font-weight="700" letter-spacing="-2">Vodiboina</text><text x="49" y="260" fill="#efa58f" font-family="Arial,Helvetica,sans-serif" font-size="27" font-weight="500">Frontend engineer.</text><text x="49" y="296" fill="#a2aebc" font-family="Arial,Helvetica,sans-serif" font-size="25" font-weight="400">Independent product developer.</text><g transform="translate(751 67) rotate(-4 175 101)"><rect width="350" height="202" rx="13" fill="#151c25" stroke="#2f3a49" stroke-width="2"/><path d="M0 33h350" stroke="#2f3a49"/><circle cx="18" cy="17" r="3" fill="#efa58f"/><circle cx="30" cy="17" r="3" fill="#7ac7bc"/><text x="49" y="21" fill="#a2aebc" font-family="Arial,Helvetica,sans-serif" font-size="10" font-weight="500" letter-spacing="1">INTERFACE / EVIDENCE / ACTION</text><g transform="translate(22 57) scale(1.5833333333333333)" fill="none" stroke="#efa58f" stroke-width="1.6" stroke-linecap="round" stroke-linejoin="round"><rect x="5" y="3" width="14" height="18" rx="2"/><path d="M9 8h6M9 12h6M9 16h3M15 17l1 1 3-3"/></g><text x="77" y="75" fill="#f0f3f7" font-family="Arial,Helvetica,sans-serif" font-size="19" font-weight="600">ShopGrade</text><text x="77" y="100" fill="#a2aebc" font-family="Arial,Helvetica,sans-serif" font-size="13" font-weight="400">A report ready for the next step</text><rect x="24" y="123" width="288" height="9" rx="4" fill="#222c39"/><rect x="24" y="151" width="232" height="9" rx="4" fill="#222c39"/><rect x="24" y="176" width="165" height="9" rx="4" fill="#222c39"/></g><g transform="translate(855 200) rotate(3 167 67)"><rect width="334" height="134" rx="12" fill="#151c25" stroke="#7ac7bc" stroke-width="1.5"/><g transform="translate(19 22) scale(1.5)" fill="none" stroke="#7ac7bc" stroke-width="1.6" stroke-linecap="round" stroke-linejoin="round"><circle cx="12" cy="13" r="8"/><path d="M9 2h6M12 2v3M18 5l2 2M12 9v4l3 2"/></g><text x="72" y="42" fill="#f0f3f7" font-family="Arial,Helvetica,sans-serif" font-size="17" font-weight="600">State beyond the popup</text><rect x="21" y="69" width="87" height="34" rx="6" fill="#222c39"/><text x="34" y="91" fill="#a2aebc" font-family="Arial,Helvetica,sans-serif" font-size="13" font-weight="400">focus</text><rect x="117" y="69" width="85" height="34" rx="6" fill="#222c39"/><text x="130" y="91" fill="#a2aebc" font-family="Arial,Helvetica,sans-serif" font-size="13" font-weight="400">notes</text><rect x="211" y="69" width="101" height="34" rx="6" fill="#222c39"/><text x="224" y="91" fill="#a2aebc" font-family="Arial,Helvetica,sans-serif" font-size="13" font-weight="400">workspace</text></g><g transform="translate(1115 74) rotate(5 48 91)"><rect width="94" height="190" rx="17" fill="#0d1117" stroke="#efa58f" stroke-width="2"/><rect x="8" y="24" width="78" height="139" rx="8" fill="#151c25"/><path d="M33 13h28" stroke="#a2aebc" stroke-width="3" stroke-linecap="round"/><g transform="translate(23 58) scale(2.0)" fill="none" stroke="#7ac7bc" stroke-width="1.6" stroke-linecap="round" stroke-linejoin="round"><rect x="4" y="9" width="16" height="12" rx="3"/><path d="M8 9V6a4 4 0 0 1 8 0v3M12 14v3"/></g><text x="19" y="127" fill="#a2aebc" font-family="Arial,Helvetica,sans-serif" font-size="8" font-weight="600" letter-spacing="0.5">SECUREVAULT</text><circle cx="47" cy="177" r="3" fill="#a2aebc"/></g><path d="M48 351H1232" stroke="#2f3a49"/><g transform="translate(48 372) scale(1.0833333333333333)" fill="none" stroke="#7ac7bc" stroke-width="1.6" stroke-linecap="round" stroke-linejoin="round"><rect x="2" y="3" width="20" height="18" rx="3"/><path d="M2 8h20M7 12l-3 3 3 3M17 12l3 3-3 3M13 11l-2 8"/></g><text x="90" y="383" fill="#f0f3f7" font-family="Arial,Helvetica,sans-serif" font-size="12" font-weight="600" letter-spacing="1">WEB</text><text x="90" y="404" fill="#a2aebc" font-family="Arial,Helvetica,sans-serif" font-size="13" font-weight="400">React / Next.js / TypeScript</text><g transform="translate(456 372) scale(1.0833333333333333)" fill="none" stroke="#7ac7bc" stroke-width="1.6" stroke-linecap="round" stroke-linejoin="round"><circle cx="12" cy="13" r="8"/><path d="M9 2h6M12 2v3M18 5l2 2M12 9v4l3 2"/></g><text x="498" y="383" fill="#f0f3f7" font-family="Arial,Helvetica,sans-serif" font-size="12" font-weight="600" letter-spacing="1">BROWSER</text><text x="498" y="404" fill="#a2aebc" font-family="Arial,Helvetica,sans-serif" font-size="13" font-weight="400">Manifest V3 / Chrome APIs</text><g transform="translate(885 372) scale(1.0833333333333333)" fill="none" stroke="#7ac7bc" stroke-width="1.6" stroke-linecap="round" stroke-linejoin="round"><rect x="6" y="2" width="12" height="20" rx="3"/><path d="M10 5h4M11 19h2"/></g><text x="927" y="383" fill="#f0f3f7" font-family="Arial,Helvetica,sans-serif" font-size="12" font-weight="600" letter-spacing="1">ANDROID</text><text x="927" y="404" fill="#a2aebc" font-family="Arial,Helvetica,sans-serif" font-size="13" font-weight="400">Kotlin / Jetpack Compose</text></svg>